<svg xmlns="http://www.w3.org/2000/svg" viewBox="0 0 88 88" fill="none">
	<rect x="8" y="8" width="72" height="72" rx="24" fill="#eff6ff" />
	<circle cx="44" cy="44" r="23" stroke="#3b82f6" stroke-opacity=".45" stroke-width="3" />
	<circle cx="44" cy="44" r="13" stroke="#0f766e" stroke-opacity=".35" stroke-width="3" stroke-dasharray="3 5" />
	<path d="M44 44 66 32" stroke="#0f766e" stroke-width="3.5" stroke-linecap="round" />
	<circle cx="66" cy="32" r="4.5" fill="#f97316" stroke="#9a3412" stroke-width="2" />
	<path d="M44.8 17.4c-1.6 0-2.7 1.1-2.7 2.9v11.2L23.9 37c-1.6.5-2 2.5-.8 3.7l3.8 3.9c.7.8 1.8 1 2.8.6L42 40.6v12.3l-2.6 5c-.3.4-.2 1 .1 1.4l2.3 3.2c.8 1 2.2 1 3 0l2.3-3.2c.3-.4.4-1 .1-1.4l-2.6-5V40.6l12.3 4.6c1 .4 2.1.2 2.8-.6l3.8-3.9c1.2-1.2.8-3.2-.8-3.7l-18.2-5.6V20.3c0-1.8-1.1-2.9-2.7-2.9Z" fill="#2563eb" stroke="#082f49" stroke-width="2" stroke-linejoin="round" />
	<path d="M20 60c8.5 4.7 19.4 6.4 31 4.6" stroke="#0f766e" stroke-opacity=".45" stroke-width="3" stroke-linecap="round" />
</svg>